# xmcd
# Copyright (c) 1998 CDDB Inc.
#
# Track frame offsets:
#	150
#	20743
#	36597
#	56353
#	76382
#	94799
#	111578
#	128552
#	144204
#	161016
#	177962
#	196535
#	209117
#	227969
#	248045
#
# Disc length: 3501 seconds
#
# Revision: 1
# Processed by: cddbd v1.4PL0 Copyright (c) Steve Scherf et al.
# Submitted via: audiograbber 1.70
#
DISCID=d00dab0f
DTITLE=Zezé Di Camargo and Luciano - Zezé Di Camargo and Luciano
DYEAR=1900
DGENRE=
TTITLE0=Preciso de um tempo
TTITLE1=Aonde você foi parar?
TTITLE2=Baby come back
TTITLE3=Chamando seu nome
TTITLE4=Sou assim
TTITLE5=Balançou
TTITLE6=Eu era assim
TTITLE7=Imprevisivel
TTITLE8=A ferro e fogo
TTITLE9=Rio e Nova York
TTITLE10=Um dia mais
TTITLE11=Só amor pra ela
TTITLE12=Conflito
TTITLE13=Sufocado
TTITLE14=Coração de vidro
EXTD=
EXTT0=
EXTT1=
EXTT2=
EXTT3=
EXTT4=
EXTT5=
EXTT6=
EXTT7=
EXTT8=
EXTT9=
EXTT10=
EXTT11=
EXTT12=
EXTT13=
EXTT14=
PLAYORDER=
